<?xml version="1.0" encoding="UTF-8" standalone="no"?>
<!DOCTYPE svg PUBLIC "-//W3C//DTD SVG 1.1//EN"
 "http://www.w3.org/Graphics/SVG/1.1/DTD/svg11.dtd">
<!-- Generated by graphviz version 2.28.0 (20111211.2114)
 -->
<!-- Title: controllers_diagram Pages: 1 -->
<svg width="381pt" height="214pt"
 viewBox="0.00 0.00 381.00 214.00" xmlns="http://www.w3.org/2000/svg" xmlns:xlink="http://www.w3.org/1999/xlink">
<g id="graph1" class="graph" transform="scale(1 1) rotate(0) translate(4 210)">
<title>controllers_diagram</title>
<polygon fill="white" stroke="white" points="-4,5 -4,-210 378,-210 378,5 -4,5"/>
<!-- _diagram_info -->
<g id="node1" class="node"><title>_diagram_info</title>
<text text-anchor="start" x="8" y="-63.6" font-family="Times,serif" font-size="13.00">Controllers diagram</text>
<text text-anchor="start" x="8" y="-49.6" font-family="Times,serif" font-size="13.00">Date: Jun 06 2012 &#45; 23:50</text>
<text text-anchor="start" x="8" y="-35.6" font-family="Times,serif" font-size="13.00">Migration version: 20120606211837</text>
<text text-anchor="start" x="8" y="-21.6" font-family="Times,serif" font-size="13.00">Generated by RailRoady 1.0.7</text>
<text text-anchor="start" x="8" y="-7.6" font-family="Times,serif" font-size="13.00">http://railroady.prestonlee.com</text>
</g>
<!-- ApplicationController -->
<g id="node2" class="node"><title>ApplicationController</title>
<polyline fill="none" stroke="black" points="188,-112.5 361,-112.5 "/>
<path fill="none" stroke="black" d="M361,-112.5C367,-112.5 373,-118.5 373,-124.5"/>
<polyline fill="none" stroke="black" points="373,-124.5 373,-193.5 "/>
<path fill="none" stroke="black" d="M373,-193.5C373,-199.5 367,-205.5 361,-205.5"/>
<polyline fill="none" stroke="black" points="361,-205.5 188,-205.5 "/>
<path fill="none" stroke="black" d="M188,-205.5C182,-205.5 176,-199.5 176,-193.5"/>
<polyline fill="none" stroke="black" points="176,-193.5 176,-124.5 "/>
<path fill="none" stroke="black" d="M176,-124.5C176,-118.5 182,-112.5 188,-112.5"/>
<text text-anchor="middle" x="274.5" y="-190.3" font-family="Times,serif" font-size="14.00">ApplicationController</text>
<polyline fill="none" stroke="black" points="176,-182.5 373,-182.5 "/>
<text text-anchor="start" x="184" y="-167.3" font-family="Times,serif" font-size="14.00">_one_time_conditions_valid_12?</text>
<polyline fill="none" stroke="black" points="176,-159.5 373,-159.5 "/>
<polyline fill="none" stroke="black" points="176,-135.5 373,-135.5 "/>
<text text-anchor="start" x="184" y="-120.3" font-family="Times,serif" font-size="14.00">_layout</text>
</g>
</g>
</svg>
