<?xml version="1.0" encoding="UTF-8" standalone="no"?>
<!DOCTYPE svg PUBLIC "-//W3C//DTD SVG 1.1//EN"
 "http://www.w3.org/Graphics/SVG/1.1/DTD/svg11.dtd">
<!-- Generated by graphviz version 2.28.0 (20111211.2114)
 -->
<!-- Title: models_diagram Pages: 1 -->
<svg width="716pt" height="484pt"
 viewBox="0.00 0.00 716.29 484.00" xmlns="http://www.w3.org/2000/svg" xmlns:xlink="http://www.w3.org/1999/xlink">
<g id="graph1" class="graph" transform="scale(1 1) rotate(0) translate(4 480)">
<title>models_diagram</title>
<polygon fill="white" stroke="white" points="-4,5 -4,-480 713.286,-480 713.286,5 -4,5"/>
<!-- _diagram_info -->
<g id="node1" class="node"><title>_diagram_info</title>
<text text-anchor="start" x="287.286" y="-461.6" font-family="Times,serif" font-size="13.00">Models diagram</text>
<text text-anchor="start" x="287.286" y="-447.6" font-family="Times,serif" font-size="13.00">Date: Jun 06 2012 &#45; 23:50</text>
<text text-anchor="start" x="287.286" y="-433.6" font-family="Times,serif" font-size="13.00">Migration version: 20120606211837</text>
<text text-anchor="start" x="287.286" y="-419.6" font-family="Times,serif" font-size="13.00">Generated by RailRoady 1.0.7</text>
<text text-anchor="start" x="287.286" y="-405.6" font-family="Times,serif" font-size="13.00">http://railroady.prestonlee.com</text>
</g>
<!-- Stock -->
<g id="node2" class="node"><title>Stock</title>
<ellipse fill="none" stroke="black" cx="139.286" cy="-106" rx="30.3206" ry="18"/>
<text text-anchor="middle" x="139.286" y="-102.3" font-family="Times,serif" font-size="14.00">Stock</text>
</g>
<!-- Commande -->
<g id="node3" class="node"><title>Commande</title>
<ellipse fill="none" stroke="black" cx="597.286" cy="-106" rx="51.4931" ry="18"/>
<text text-anchor="middle" x="597.286" y="-102.3" font-family="Times,serif" font-size="14.00">Commande</text>
</g>
<!-- LigneCommande -->
<g id="node4" class="node"><title>LigneCommande</title>
<ellipse fill="none" stroke="black" cx="147.286" cy="-18" rx="72.192" ry="18"/>
<text text-anchor="middle" x="147.286" y="-14.3" font-family="Times,serif" font-size="14.00">LigneCommande</text>
</g>
<!-- Commande&#45;&gt;LigneCommande -->
<g id="edge2" class="edge"><title>Commande&#45;&gt;LigneCommande</title>
<path fill="none" stroke="#1aaa8b" d="M551.421,-91.7085C546.332,-90.3858 541.211,-89.1202 536.286,-88 426.035,-62.9202 296.472,-41.5287 218.185,-29.475"/>
<ellipse fill="none" stroke="#1aaa8b" cx="555.493" cy="-92.7924" rx="4.00001" ry="4.00001"/>
<polygon fill="#1aaa8b" stroke="#1aaa8b" points="217.841,-29.4225 208.638,-23.4603 212.899,-28.6655 207.957,-27.9084 207.957,-27.9084 207.957,-27.9084 212.899,-28.6655 207.275,-32.3566 217.841,-29.4225 217.841,-29.4225"/>
<text text-anchor="middle" x="457.786" y="-58.3" font-family="Times,serif" font-size="14.00">lignes</text>
</g>
<!-- Lot -->
<g id="node5" class="node"><title>Lot</title>
<ellipse fill="none" stroke="black" cx="137.286" cy="-180" rx="27" ry="18"/>
<text text-anchor="middle" x="137.286" y="-176.3" font-family="Times,serif" font-size="14.00">Lot</text>
</g>
<!-- Ristourne -->
<g id="node6" class="node"><title>Ristourne</title>
<ellipse fill="none" stroke="black" cx="412.286" cy="-180" rx="44.271" ry="18"/>
<text text-anchor="middle" x="412.286" y="-176.3" font-family="Times,serif" font-size="14.00">Ristourne</text>
</g>
<!-- Utilisateur -->
<g id="node7" class="node"><title>Utilisateur</title>
<ellipse fill="none" stroke="black" cx="559.286" cy="-437" rx="48.1437" ry="18"/>
<text text-anchor="middle" x="559.286" y="-433.3" font-family="Times,serif" font-size="14.00">Utilisateur</text>
</g>
<!-- ContactClient -->
<g id="node8" class="node"><title>ContactClient</title>
<ellipse fill="none" stroke="black" cx="649.286" cy="-180" rx="59.1941" ry="18"/>
<text text-anchor="middle" x="649.286" y="-176.3" font-family="Times,serif" font-size="14.00">ContactClient</text>
</g>
<!-- Utilisateur&#45;&gt;ContactClient -->
<g id="edge10" class="edge"><title>Utilisateur&#45;&gt;ContactClient</title>
<path fill="none" stroke="black" d="M577.369,-420.124C592.267,-405.933 612.616,-383.761 623.286,-360 648.114,-304.712 650.284,-231.049 649.848,-198.141"/>
</g>
<!-- Adresse -->
<g id="node11" class="node"><title>Adresse</title>
<ellipse fill="none" stroke="black" cx="282.286" cy="-106" rx="38.4949" ry="18"/>
<text text-anchor="middle" x="282.286" y="-102.3" font-family="Times,serif" font-size="14.00">Adresse</text>
</g>
<!-- Utilisateur&#45;&gt;Adresse -->
<g id="edge4" class="edge"><title>Utilisateur&#45;&gt;Adresse</title>
<path fill="none" stroke="#0c085d" d="M539.992,-413.238C504.132,-370.916 424.813,-277.214 358.286,-198 338.715,-174.696 316.401,-147.959 301.04,-129.525"/>
<ellipse fill="none" stroke="#0c085d" cx="542.779" cy="-416.528" rx="4.00002" ry="4.00002"/>
<ellipse fill="#0c085d" stroke="#0c085d" cx="298.274" cy="-126.205" rx="4.00002" ry="4.00002"/>
</g>
<!-- Commercial -->
<g id="node13" class="node"><title>Commercial</title>
<ellipse fill="none" stroke="black" cx="559.286" cy="-342" rx="55.3682" ry="18"/>
<text text-anchor="middle" x="559.286" y="-338.3" font-family="Times,serif" font-size="14.00">Commercial</text>
</g>
<!-- Utilisateur&#45;&gt;Commercial -->
<g id="edge50" class="edge"><title>Utilisateur&#45;&gt;Commercial</title>
<path fill="none" stroke="black" d="M559.286,-418.942C559.286,-402.267 559.286,-377.01 559.286,-360.264"/>
</g>
<!-- ContactClient&#45;&gt;Commande -->
<g id="edge6" class="edge"><title>ContactClient&#45;&gt;Commande</title>
<path fill="none" stroke="#5e0e8f" d="M632.462,-155.705C627.03,-148.184 620.986,-139.814 615.461,-132.164"/>
<ellipse fill="none" stroke="#5e0e8f" cx="634.884" cy="-159.058" rx="4.00002" ry="4.00002"/>
<polygon fill="#5e0e8f" stroke="#5e0e8f" points="615.136,-131.715 612.929,-120.974 612.209,-127.662 609.281,-123.609 609.281,-123.609 609.281,-123.609 612.209,-127.662 605.633,-126.243 615.136,-131.715 615.136,-131.715"/>
</g>
<!-- Promotion -->
<g id="node14" class="node"><title>Promotion</title>
<ellipse fill="none" stroke="black" cx="479.286" cy="-106" rx="48.1437" ry="18"/>
<text text-anchor="middle" x="479.286" y="-102.3" font-family="Times,serif" font-size="14.00">Promotion</text>
</g>
<!-- ContactClient&#45;&gt;Promotion -->
<g id="edge8" class="edge"><title>ContactClient&#45;&gt;Promotion</title>
<path fill="none" stroke="#72de53" d="M608.626,-161.779C581.584,-150.326 546.226,-135.351 519.315,-123.953"/>
<ellipse fill="none" stroke="#72de53" cx="612.422" cy="-163.387" rx="4.00002" ry="4.00002"/>
<polygon fill="#72de53" stroke="#72de53" points="519.021,-123.829 511.568,-115.785 514.417,-121.879 509.813,-119.929 509.813,-119.929 509.813,-119.929 514.417,-121.879 508.058,-124.073 519.021,-123.829 519.021,-123.829"/>
</g>
<!-- Client -->
<g id="node9" class="node"><title>Client</title>
<ellipse fill="none" stroke="black" cx="537.286" cy="-268" rx="32.2457" ry="18"/>
<text text-anchor="middle" x="537.286" y="-264.3" font-family="Times,serif" font-size="14.00">Client</text>
</g>
<!-- Client&#45;&gt;Commande -->
<g id="edge16" class="edge"><title>Client&#45;&gt;Commande</title>
<path fill="none" stroke="#fda707" d="M547.141,-240.72C558.214,-211.193 576.092,-163.517 587.242,-133.786"/>
<polygon fill="#fda707" stroke="#fda707" points="547.105,-240.816 539.38,-248.6 545.35,-245.498 543.594,-250.18 543.594,-250.18 543.594,-250.18 545.35,-245.498 547.807,-251.76 547.105,-240.816 547.105,-240.816"/>
<polygon fill="#fda707" stroke="#fda707" points="587.371,-133.44 595.096,-125.657 589.127,-128.758 590.883,-124.077 590.883,-124.077 590.883,-124.077 589.127,-128.758 586.669,-122.497 587.371,-133.44 587.371,-133.44"/>
</g>
<!-- Client&#45;&gt;Ristourne -->
<g id="edge20" class="edge"><title>Client&#45;&gt;Ristourne</title>
<path fill="none" stroke="#2409cd" d="M506.128,-252.305C494.829,-246.507 482.173,-239.451 471.286,-232 458.999,-223.591 446.381,-212.995 435.984,-203.643"/>
<ellipse fill="none" stroke="#2409cd" cx="509.752" cy="-254.128" rx="4.00002" ry="4.00002"/>
<polygon fill="#2409cd" stroke="#2409cd" points="435.88,-203.548 431.549,-193.474 432.194,-200.17 428.508,-196.791 428.508,-196.791 428.508,-196.791 432.194,-200.17 425.468,-200.109 435.88,-203.548 435.88,-203.548"/>
</g>
<!-- Client&#45;&gt;ContactClient -->
<g id="edge14" class="edge"><title>Client&#45;&gt;ContactClient</title>
<path fill="none" stroke="#8eed24" d="M560.662,-247.519C572.417,-237.866 586.963,-226.137 600.286,-216 605.988,-211.662 612.149,-207.138 618.114,-202.839"/>
<ellipse fill="none" stroke="#8eed24" cx="557.531" cy="-250.1" rx="4.00002" ry="4.00002"/>
<polygon fill="#8eed24" stroke="#8eed24" points="618.501,-202.563 629.253,-200.411 622.569,-199.656 626.637,-196.749 626.637,-196.749 626.637,-196.749 622.569,-199.656 624.021,-193.088 618.501,-202.563 618.501,-202.563"/>
</g>
<!-- Client&#45;&gt;Adresse -->
<g id="edge12" class="edge"><title>Client&#45;&gt;Adresse</title>
<path fill="none" stroke="#5faaac" d="M523.718,-243.522C507.464,-216.121 480.524,-173.13 465.286,-162 424.394,-132.132 367.205,-118.328 327.692,-112.051"/>
<ellipse fill="none" stroke="#5faaac" cx="525.774" cy="-247.014" rx="4.00002" ry="4.00002"/>
<ellipse fill="#5faaac" stroke="#5faaac" cx="323.496" cy="-111.418" rx="4.00001" ry="4.00001"/>
</g>
<!-- Client&#45;&gt;Promotion -->
<g id="edge18" class="edge"><title>Client&#45;&gt;Promotion</title>
<path fill="none" stroke="#6e19d1" d="M531.424,-241.902C525.023,-216.237 513.731,-175.496 499.286,-142 497.956,-138.915 496.422,-135.757 494.806,-132.661"/>
<ellipse fill="none" stroke="#6e19d1" cx="532.453" cy="-246.11" rx="4.00001" ry="4.00001"/>
<polygon fill="#6e19d1" stroke="#6e19d1" points="494.686,-132.444 493.777,-121.516 492.263,-128.07 489.841,-123.696 489.841,-123.696 489.841,-123.696 492.263,-128.07 485.904,-125.876 494.686,-132.444 494.686,-132.444"/>
</g>
<!-- Produit -->
<g id="node10" class="node"><title>Produit</title>
<ellipse fill="none" stroke="black" cx="91.2863" cy="-268" rx="36.096" ry="18"/>
<text text-anchor="middle" x="91.2863" y="-264.3" font-family="Times,serif" font-size="14.00">Produit</text>
</g>
<!-- Produit&#45;&gt;Stock -->
<g id="edge30" class="edge"><title>Produit&#45;&gt;Stock</title>
<path fill="none" stroke="#14db7d" d="M135.476,-265.781C160.556,-262.535 190.086,-253.864 206.286,-232 231.476,-198.003 192.658,-153.324 164.414,-127.622"/>
<ellipse fill="none" stroke="#14db7d" cx="131.489" cy="-266.218" rx="4.00001" ry="4.00001"/>
<polygon fill="#14db7d" stroke="#14db7d" points="164.291,-127.514 159.766,-117.525 160.541,-124.207 156.79,-120.901 156.79,-120.901 156.79,-120.901 160.541,-124.207 153.814,-124.276 164.291,-127.514 164.291,-127.514"/>
</g>
<!-- Produit&#45;&gt;LigneCommande -->
<g id="edge36" class="edge"><title>Produit&#45;&gt;LigneCommande</title>
<path fill="none" stroke="#cd16a1" d="M53.1229,-255.025C40.962,-249.628 28.3314,-242.131 19.2863,-232 -1.73534,-208.454 -4.63836,-191.226 7.28629,-162 28.7638,-109.361 79.9839,-65.5902 114.149,-40.8568"/>
<ellipse fill="none" stroke="#cd16a1" cx="56.9019" cy="-256.589" rx="4.00002" ry="4.00002"/>
<polygon fill="#cd16a1" stroke="#cd16a1" points="114.279,-40.7649 125.04,-38.6572 118.359,-37.875 122.439,-34.985 122.439,-34.985 122.439,-34.985 118.359,-37.875 119.839,-31.3128 114.279,-40.7649 114.279,-40.7649"/>
</g>
<!-- Produit&#45;&gt;Lot -->
<g id="edge22" class="edge"><title>Produit&#45;&gt;Lot</title>
<path fill="none" stroke="#921845" d="M108.037,-243.912C110.596,-240.015 113.106,-235.951 115.286,-232 119.592,-224.197 123.656,-215.381 127.092,-207.3"/>
<ellipse fill="none" stroke="#921845" cx="105.688" cy="-247.375" rx="4.00002" ry="4.00002"/>
<polygon fill="#921845" stroke="#921845" points="127.143,-207.175 135.107,-199.637 129.044,-202.55 130.945,-197.926 130.945,-197.926 130.945,-197.926 129.044,-202.55 126.783,-196.215 127.143,-207.175 127.143,-207.175"/>
<text text-anchor="middle" x="162.786" y="-220.3" font-family="Times,serif" font-size="14.00">lots_contenant</text>
</g>
<!-- Produit&#45;&gt;Lot -->
<g id="edge26" class="edge"><title>Produit&#45;&gt;Lot</title>
<path fill="none" stroke="#b0b616" d="M59.0208,-250.949C44.24,-241.401 31.8805,-228.703 41.2863,-216 57.6001,-193.967 74.6613,-207.745 100.286,-198 102.38,-197.204 104.522,-196.344 106.669,-195.449"/>
<ellipse fill="none" stroke="#b0b616" cx="62.487" cy="-253.038" rx="4.00002" ry="4.00002"/>
<polygon fill="#b0b616" stroke="#b0b616" points="106.809,-195.388 117.774,-195.508 111.391,-193.386 115.973,-191.384 115.973,-191.384 115.973,-191.384 111.391,-193.386 114.171,-187.261 106.809,-195.388 106.809,-195.388"/>
<text text-anchor="middle" x="76.2863" y="-220.3" font-family="Times,serif" font-size="14.00">lots_contenu</text>
</g>
<!-- Produit&#45;&gt;Ristourne -->
<g id="edge40" class="edge"><title>Produit&#45;&gt;Ristourne</title>
<path fill="none" stroke="#2328fa" d="M135.387,-263.966C198.913,-259.102 312.673,-248.408 350.286,-232 365.089,-225.543 379.194,-214.482 390.2,-204.308"/>
<ellipse fill="none" stroke="#2328fa" cx="131.135" cy="-264.286" rx="4" ry="4"/>
<polygon fill="#2328fa" stroke="#2328fa" points="390.436,-204.08 400.757,-200.374 394.034,-200.608 397.632,-197.136 397.632,-197.136 397.632,-197.136 394.034,-200.608 394.507,-193.898 390.436,-204.08 390.436,-204.08"/>
</g>
<!-- Produit&#45;&gt;Produit -->
<g id="edge24" class="edge"><title>Produit&#45;&gt;Produit</title>
<path fill="none" stroke="#0a40be" d="M136.883,-270.85C141.986,-270.313 145.286,-269.363 145.286,-268 145.286,-266.637 141.986,-265.687 136.883,-265.15"/>
<polygon fill="#0a40be" stroke="#0a40be" points="136.848,-270.852 126.63,-266.871 131.854,-271.108 126.861,-271.365 126.861,-271.365 126.861,-271.365 131.854,-271.108 127.092,-275.859 136.848,-270.852 136.848,-270.852"/>
<polygon fill="#0a40be" stroke="#0a40be" points="136.848,-265.148 127.092,-260.141 131.854,-264.892 126.861,-264.635 126.861,-264.635 126.861,-264.635 131.854,-264.892 126.63,-269.129 136.848,-265.148 136.848,-265.148"/>
<text text-anchor="middle" x="197.286" y="-264.3" font-family="Times,serif" font-size="14.00">produits_contenant</text>
</g>
<!-- Produit&#45;&gt;Produit -->
<g id="edge28" class="edge"><title>Produit&#45;&gt;Produit</title>
<path fill="none" stroke="#0e932c" d="M131.487,-279.732C179.36,-285.997 249.286,-282.087 249.286,-268 249.286,-253.913 179.36,-250.003 131.487,-256.268"/>
<polygon fill="#0e932c" stroke="#0e932c" points="131.228,-279.693 122.018,-273.74 126.285,-278.94 121.342,-278.188 121.342,-278.188 121.342,-278.188 126.285,-278.94 120.665,-282.637 131.228,-279.693 131.228,-279.693"/>
<polygon fill="#0e932c" stroke="#0e932c" points="131.228,-256.307 120.665,-253.363 126.285,-257.06 121.342,-257.812 121.342,-257.812 121.342,-257.812 126.285,-257.06 122.018,-262.26 131.228,-256.307 131.228,-256.307"/>
<text text-anchor="middle" x="296.286" y="-264.3" font-family="Times,serif" font-size="14.00">produits_contenu</text>
</g>
<!-- Produit&#45;&gt;Adresse -->
<g id="edge34" class="edge"><title>Produit&#45;&gt;Adresse</title>
<path fill="none" stroke="#5a06b5" d="M135.387,-264.846C163.609,-261.367 199.455,-252.781 224.286,-232 255.178,-206.147 270.524,-160.226 277.41,-131.821"/>
<ellipse fill="none" stroke="#5a06b5" cx="131.246" cy="-265.299" rx="4.00001" ry="4.00001"/>
<ellipse fill="#5a06b5" stroke="#5a06b5" cx="278.317" cy="-127.856" rx="4.00001" ry="4.00001"/>
</g>
<!-- Agence -->
<g id="node12" class="node"><title>Agence</title>
<ellipse fill="none" stroke="black" cx="54.2863" cy="-180" rx="37.5442" ry="18"/>
<text text-anchor="middle" x="54.2863" y="-176.3" font-family="Times,serif" font-size="14.00">Agence</text>
</g>
<!-- Produit&#45;&gt;Agence -->
<g id="edge32" class="edge"><title>Produit&#45;&gt;Agence</title>
<path fill="none" stroke="#064be2" d="M50.939,-254.208C40.8178,-248.98 31.1731,-241.785 25.2863,-232 19.819,-222.912 23.5968,-212.78 30.0036,-203.956"/>
<polygon fill="#064be2" stroke="#064be2" points="51.1788,-254.317 58.4031,-262.567 55.7263,-256.396 60.2738,-258.475 60.2738,-258.475 60.2738,-258.475 55.7263,-256.396 62.1445,-254.382 51.1788,-254.317 51.1788,-254.317"/>
<polygon fill="#064be2" stroke="#064be2" points="30.0095,-203.949 39.8842,-199.18 33.2231,-200.119 36.4367,-196.288 36.4367,-196.288 36.4367,-196.288 33.2231,-200.119 32.9892,-193.396 30.0095,-203.949 30.0095,-203.949"/>
</g>
<!-- Produit&#45;&gt;Promotion -->
<g id="edge38" class="edge"><title>Produit&#45;&gt;Promotion</title>
<path fill="none" stroke="#05f068" d="M134.072,-261.308C165.873,-256.14 209.869,-246.984 246.286,-232 300.571,-209.664 306.565,-189.761 358.286,-162 384.465,-147.948 414.92,-134.118 438.727,-123.841"/>
<ellipse fill="none" stroke="#05f068" cx="129.804" cy="-261.979" rx="4.00001" ry="4.00001"/>
<polygon fill="#05f068" stroke="#05f068" points="438.966,-123.739 449.93,-123.942 443.563,-121.772 448.16,-119.805 448.16,-119.805 448.16,-119.805 443.563,-121.772 446.389,-115.667 438.966,-123.739 438.966,-123.739"/>
</g>
<!-- Agence&#45;&gt;Stock -->
<g id="edge42" class="edge"><title>Agence&#45;&gt;Stock</title>
<path fill="none" stroke="#a3e953" d="M78.1295,-158.803C89.5199,-149.155 103.141,-137.617 114.634,-127.882"/>
<ellipse fill="none" stroke="#a3e953" cx="74.9505" cy="-161.496" rx="4.00002" ry="4.00002"/>
<polygon fill="#a3e953" stroke="#a3e953" points="114.934,-127.628 125.473,-124.598 118.749,-124.396 122.564,-121.164 122.564,-121.164 122.564,-121.164 118.749,-124.396 119.656,-117.731 114.934,-127.628 114.934,-127.628"/>
</g>
<!-- Agence&#45;&gt;Adresse -->
<g id="edge44" class="edge"><title>Agence&#45;&gt;Adresse</title>
<path fill="none" stroke="#6c1e14" d="M90.7525,-165.6C94.3036,-164.358 97.859,-163.14 101.286,-162 149.527,-145.958 205.605,-129.207 242.405,-118.47"/>
<ellipse fill="none" stroke="#6c1e14" cx="86.8069" cy="-166.997" rx="4.00001" ry="4.00001"/>
<ellipse fill="#6c1e14" stroke="#6c1e14" cx="246.572" cy="-117.258" rx="4.00001" ry="4.00001"/>
</g>
<!-- Commercial&#45;&gt;ContactClient -->
<g id="edge46" class="edge"><title>Commercial&#45;&gt;ContactClient</title>
<path fill="none" stroke="#8f2456" d="M572.887,-316.822C589.554,-287.19 617.68,-237.188 634.76,-206.825"/>
<ellipse fill="none" stroke="#8f2456" cx="570.709" cy="-320.693" rx="4.00002" ry="4.00002"/>
<polygon fill="#8f2456" stroke="#8f2456" points="634.778,-206.792 643.603,-200.283 637.229,-202.434 639.681,-198.077 639.681,-198.077 639.681,-198.077 637.229,-202.434 635.759,-195.87 634.778,-206.792 634.778,-206.792"/>
</g>
<!-- Commercial&#45;&gt;Client -->
<g id="edge48" class="edge"><title>Commercial&#45;&gt;Client</title>
<path fill="none" stroke="#3e6b5b" d="M551.087,-314.166C549.236,-308.108 547.272,-301.68 545.423,-295.63"/>
<polygon fill="#3e6b5b" stroke="#3e6b5b" points="551.15,-314.373 549.769,-325.252 552.611,-319.155 554.073,-323.937 554.073,-323.937 554.073,-323.937 552.611,-319.155 558.376,-322.622 551.15,-314.373 551.15,-314.373"/>
<polygon fill="#3e6b5b" stroke="#3e6b5b" points="545.385,-295.504 546.766,-284.626 543.924,-290.722 542.463,-285.941 542.463,-285.941 542.463,-285.941 543.924,-290.722 538.159,-287.256 545.385,-295.504 545.385,-295.504"/>
</g>
</g>
</svg>
