<?xml version="1.0" encoding="UTF-8" standalone="no"?>
<!DOCTYPE svg PUBLIC "-//W3C//DTD SVG 1.1//EN"
 "http://www.w3.org/Graphics/SVG/1.1/DTD/svg11.dtd">
<!-- Generated by graphviz version 2.28.0 (20111211.2114)
 -->
<!-- Title: models_diagram Pages: 1 -->
<svg width="878pt" height="1096pt"
 viewBox="0.00 0.00 877.94 1096.00" xmlns="http://www.w3.org/2000/svg" xmlns:xlink="http://www.w3.org/1999/xlink">
<g id="graph1" class="graph" transform="scale(1 1) rotate(0) translate(4 1092)">
<title>models_diagram</title>
<polygon fill="white" stroke="white" points="-4,5 -4,-1092 874.938,-1092 874.938,5 -4,5"/>
<!-- _diagram_info -->
<g id="node1" class="node"><title>_diagram_info</title>
<text text-anchor="start" x="414.938" y="-1036.6" font-family="Times,serif" font-size="13.00">Models diagram</text>
<text text-anchor="start" x="414.938" y="-1022.6" font-family="Times,serif" font-size="13.00">Date: Jun 06 2012 &#45; 23:50</text>
<text text-anchor="start" x="414.938" y="-1008.6" font-family="Times,serif" font-size="13.00">Migration version: 20120606211837</text>
<text text-anchor="start" x="414.938" y="-994.6" font-family="Times,serif" font-size="13.00">Generated by RailRoady 1.0.7</text>
<text text-anchor="start" x="414.938" y="-980.6" font-family="Times,serif" font-size="13.00">http://railroady.prestonlee.com</text>
</g>
<!-- Stock -->
<g id="node2" class="node"><title>Stock</title>
<polyline fill="none" stroke="black" points="109.438,-153.5 248.438,-153.5 "/>
<path fill="none" stroke="black" d="M248.438,-153.5C254.438,-153.5 260.438,-159.5 260.438,-165.5"/>
<polyline fill="none" stroke="black" points="260.438,-165.5 260.438,-262.5 "/>
<path fill="none" stroke="black" d="M260.438,-262.5C260.438,-268.5 254.438,-274.5 248.438,-274.5"/>
<polyline fill="none" stroke="black" points="248.438,-274.5 109.438,-274.5 "/>
<path fill="none" stroke="black" d="M109.438,-274.5C103.438,-274.5 97.4383,-268.5 97.4383,-262.5"/>
<polyline fill="none" stroke="black" points="97.4383,-262.5 97.4383,-165.5 "/>
<path fill="none" stroke="black" d="M97.4383,-165.5C97.4383,-159.5 103.438,-153.5 109.438,-153.5"/>
<text text-anchor="middle" x="178.938" y="-259.3" font-family="Times,serif" font-size="14.00">Stock</text>
<polyline fill="none" stroke="black" points="97.4383,-251.5 260.438,-251.5 "/>
<text text-anchor="start" x="105.438" y="-236.3" font-family="Times,serif" font-size="14.00">quantite_disponible :float</text>
<text text-anchor="start" x="105.438" y="-221.3" font-family="Times,serif" font-size="14.00">unite :string</text>
<text text-anchor="start" x="105.438" y="-206.3" font-family="Times,serif" font-size="14.00">date_fabrication :datetime</text>
<text text-anchor="start" x="105.438" y="-191.3" font-family="Times,serif" font-size="14.00">date_peremption :datetime</text>
<text text-anchor="start" x="105.438" y="-176.3" font-family="Times,serif" font-size="14.00">created_at :datetime</text>
<text text-anchor="start" x="105.438" y="-161.3" font-family="Times,serif" font-size="14.00">updated_at :datetime</text>
</g>
<!-- Commande -->
<g id="node3" class="node"><title>Commande</title>
<polyline fill="none" stroke="black" points="702.938,-176 826.938,-176 "/>
<path fill="none" stroke="black" d="M826.938,-176C832.938,-176 838.938,-182 838.938,-188"/>
<polyline fill="none" stroke="black" points="838.938,-188 838.938,-240 "/>
<path fill="none" stroke="black" d="M838.938,-240C838.938,-246 832.938,-252 826.938,-252"/>
<polyline fill="none" stroke="black" points="826.938,-252 702.938,-252 "/>
<path fill="none" stroke="black" d="M702.938,-252C696.938,-252 690.938,-246 690.938,-240"/>
<polyline fill="none" stroke="black" points="690.938,-240 690.938,-188 "/>
<path fill="none" stroke="black" d="M690.938,-188C690.938,-182 696.938,-176 702.938,-176"/>
<text text-anchor="middle" x="764.938" y="-236.8" font-family="Times,serif" font-size="14.00">Commande</text>
<polyline fill="none" stroke="black" points="690.938,-229 838.938,-229 "/>
<text text-anchor="start" x="698.938" y="-213.8" font-family="Times,serif" font-size="14.00">date_livraison :datetime</text>
<text text-anchor="start" x="698.938" y="-198.8" font-family="Times,serif" font-size="14.00">created_at :datetime</text>
<text text-anchor="start" x="698.938" y="-183.8" font-family="Times,serif" font-size="14.00">updated_at :datetime</text>
</g>
<!-- LigneCommande -->
<g id="node4" class="node"><title>LigneCommande</title>
<polyline fill="none" stroke="black" points="142.438,-1 249.438,-1 "/>
<path fill="none" stroke="black" d="M249.438,-1C255.438,-1 261.438,-7 261.438,-13"/>
<polyline fill="none" stroke="black" points="261.438,-13 261.438,-65 "/>
<path fill="none" stroke="black" d="M261.438,-65C261.438,-71 255.438,-77 249.438,-77"/>
<polyline fill="none" stroke="black" points="249.438,-77 142.438,-77 "/>
<path fill="none" stroke="black" d="M142.438,-77C136.438,-77 130.438,-71 130.438,-65"/>
<polyline fill="none" stroke="black" points="130.438,-65 130.438,-13 "/>
<path fill="none" stroke="black" d="M130.438,-13C130.438,-7 136.438,-1 142.438,-1"/>
<text text-anchor="middle" x="195.938" y="-61.8" font-family="Times,serif" font-size="14.00">LigneCommande</text>
<polyline fill="none" stroke="black" points="130.438,-54 261.438,-54 "/>
<text text-anchor="start" x="138.438" y="-38.8" font-family="Times,serif" font-size="14.00">quantite :integer</text>
<text text-anchor="start" x="138.438" y="-23.8" font-family="Times,serif" font-size="14.00">created_at :datetime</text>
<text text-anchor="start" x="138.438" y="-8.8" font-family="Times,serif" font-size="14.00">updated_at :datetime</text>
</g>
<!-- Commande&#45;&gt;LigneCommande -->
<g id="edge2" class="edge"><title>Commande&#45;&gt;LigneCommande</title>
<path fill="none" stroke="#c448a9" d="M731.09,-169.697C717.372,-154.93 700.402,-139.712 681.938,-130 549.362,-60.261 371.601,-43.7836 271.93,-40.357"/>
<ellipse fill="none" stroke="#c448a9" cx="734.084" cy="-173.012" rx="4.00002" ry="4.00002"/>
<polygon fill="#c448a9" stroke="#c448a9" points="271.642,-40.3483 261.785,-35.5426 266.644,-40.1944 261.647,-40.0405 261.647,-40.0405 261.647,-40.0405 266.644,-40.1944 261.508,-44.5384 271.642,-40.3483 271.642,-40.3483"/>
<text text-anchor="middle" x="649.438" y="-100.3" font-family="Times,serif" font-size="14.00">lignes</text>
</g>
<!-- Lot -->
<g id="node5" class="node"><title>Lot</title>
<polyline fill="none" stroke="black" points="185.438,-359 292.438,-359 "/>
<path fill="none" stroke="black" d="M292.438,-359C298.438,-359 304.438,-365 304.438,-371"/>
<polyline fill="none" stroke="black" points="304.438,-371 304.438,-453 "/>
<path fill="none" stroke="black" d="M304.438,-453C304.438,-459 298.438,-465 292.438,-465"/>
<polyline fill="none" stroke="black" points="292.438,-465 185.438,-465 "/>
<path fill="none" stroke="black" d="M185.438,-465C179.438,-465 173.438,-459 173.438,-453"/>
<polyline fill="none" stroke="black" points="173.438,-453 173.438,-371 "/>
<path fill="none" stroke="black" d="M173.438,-371C173.438,-365 179.438,-359 185.438,-359"/>
<text text-anchor="middle" x="238.938" y="-449.8" font-family="Times,serif" font-size="14.00">Lot</text>
<polyline fill="none" stroke="black" points="173.438,-442 304.438,-442 "/>
<text text-anchor="start" x="181.438" y="-426.8" font-family="Times,serif" font-size="14.00">ref_lot :string</text>
<text text-anchor="start" x="181.438" y="-411.8" font-family="Times,serif" font-size="14.00">ref_produit :string</text>
<text text-anchor="start" x="181.438" y="-396.8" font-family="Times,serif" font-size="14.00">quantite :integer</text>
<text text-anchor="start" x="181.438" y="-381.8" font-family="Times,serif" font-size="14.00">created_at :datetime</text>
<text text-anchor="start" x="181.438" y="-366.8" font-family="Times,serif" font-size="14.00">updated_at :datetime</text>
</g>
<!-- Ristourne -->
<g id="node6" class="node"><title>Ristourne</title>
<polyline fill="none" stroke="black" points="487.438,-359 594.438,-359 "/>
<path fill="none" stroke="black" d="M594.438,-359C600.438,-359 606.438,-365 606.438,-371"/>
<polyline fill="none" stroke="black" points="606.438,-371 606.438,-453 "/>
<path fill="none" stroke="black" d="M606.438,-453C606.438,-459 600.438,-465 594.438,-465"/>
<polyline fill="none" stroke="black" points="594.438,-465 487.438,-465 "/>
<path fill="none" stroke="black" d="M487.438,-465C481.438,-465 475.438,-459 475.438,-453"/>
<polyline fill="none" stroke="black" points="475.438,-453 475.438,-371 "/>
<path fill="none" stroke="black" d="M475.438,-371C475.438,-365 481.438,-359 487.438,-359"/>
<text text-anchor="middle" x="540.938" y="-449.8" font-family="Times,serif" font-size="14.00">Ristourne</text>
<polyline fill="none" stroke="black" points="475.438,-442 606.438,-442 "/>
<text text-anchor="start" x="483.438" y="-426.8" font-family="Times,serif" font-size="14.00">ca_min :integer</text>
<text text-anchor="start" x="483.438" y="-411.8" font-family="Times,serif" font-size="14.00">ca_max :integer</text>
<text text-anchor="start" x="483.438" y="-396.8" font-family="Times,serif" font-size="14.00">valeur :float</text>
<text text-anchor="start" x="483.438" y="-381.8" font-family="Times,serif" font-size="14.00">created_at :datetime</text>
<text text-anchor="start" x="483.438" y="-366.8" font-family="Times,serif" font-size="14.00">updated_at :datetime</text>
</g>
<!-- Utilisateur -->
<g id="node7" class="node"><title>Utilisateur</title>
<polyline fill="none" stroke="black" points="651.438,-936.5 758.438,-936.5 "/>
<path fill="none" stroke="black" d="M758.438,-936.5C764.438,-936.5 770.438,-942.5 770.438,-948.5"/>
<polyline fill="none" stroke="black" points="770.438,-948.5 770.438,-1075.5 "/>
<path fill="none" stroke="black" d="M770.438,-1075.5C770.438,-1081.5 764.438,-1087.5 758.438,-1087.5"/>
<polyline fill="none" stroke="black" points="758.438,-1087.5 651.438,-1087.5 "/>
<path fill="none" stroke="black" d="M651.438,-1087.5C645.438,-1087.5 639.438,-1081.5 639.438,-1075.5"/>
<polyline fill="none" stroke="black" points="639.438,-1075.5 639.438,-948.5 "/>
<path fill="none" stroke="black" d="M639.438,-948.5C639.438,-942.5 645.438,-936.5 651.438,-936.5"/>
<text text-anchor="middle" x="704.938" y="-1072.3" font-family="Times,serif" font-size="14.00">Utilisateur</text>
<polyline fill="none" stroke="black" points="639.438,-1064.5 770.438,-1064.5 "/>
<text text-anchor="start" x="647.438" y="-1049.3" font-family="Times,serif" font-size="14.00">roles_mask :integer</text>
<text text-anchor="start" x="647.438" y="-1034.3" font-family="Times,serif" font-size="14.00">nom :string</text>
<text text-anchor="start" x="647.438" y="-1019.3" font-family="Times,serif" font-size="14.00">prenom :string</text>
<text text-anchor="start" x="647.438" y="-1004.3" font-family="Times,serif" font-size="14.00">email :string</text>
<text text-anchor="start" x="647.438" y="-989.3" font-family="Times,serif" font-size="14.00">telephone :string</text>
<text text-anchor="start" x="647.438" y="-974.3" font-family="Times,serif" font-size="14.00">created_at :datetime</text>
<text text-anchor="start" x="647.438" y="-959.3" font-family="Times,serif" font-size="14.00">updated_at :datetime</text>
<text text-anchor="start" x="647.438" y="-944.3" font-family="Times,serif" font-size="14.00">position :string</text>
</g>
<!-- ContactClient -->
<g id="node8" class="node"><title>ContactClient</title>
<polyline fill="none" stroke="black" points="751.438,-336.5 858.438,-336.5 "/>
<path fill="none" stroke="black" d="M858.438,-336.5C864.438,-336.5 870.438,-342.5 870.438,-348.5"/>
<polyline fill="none" stroke="black" points="870.438,-348.5 870.438,-475.5 "/>
<path fill="none" stroke="black" d="M870.438,-475.5C870.438,-481.5 864.438,-487.5 858.438,-487.5"/>
<polyline fill="none" stroke="black" points="858.438,-487.5 751.438,-487.5 "/>
<path fill="none" stroke="black" d="M751.438,-487.5C745.438,-487.5 739.438,-481.5 739.438,-475.5"/>
<polyline fill="none" stroke="black" points="739.438,-475.5 739.438,-348.5 "/>
<path fill="none" stroke="black" d="M739.438,-348.5C739.438,-342.5 745.438,-336.5 751.438,-336.5"/>
<text text-anchor="middle" x="804.938" y="-472.3" font-family="Times,serif" font-size="14.00">ContactClient</text>
<polyline fill="none" stroke="black" points="739.438,-464.5 870.438,-464.5 "/>
<text text-anchor="start" x="747.438" y="-449.3" font-family="Times,serif" font-size="14.00">roles_mask :integer</text>
<text text-anchor="start" x="747.438" y="-434.3" font-family="Times,serif" font-size="14.00">nom :string</text>
<text text-anchor="start" x="747.438" y="-419.3" font-family="Times,serif" font-size="14.00">prenom :string</text>
<text text-anchor="start" x="747.438" y="-404.3" font-family="Times,serif" font-size="14.00">email :string</text>
<text text-anchor="start" x="747.438" y="-389.3" font-family="Times,serif" font-size="14.00">telephone :string</text>
<text text-anchor="start" x="747.438" y="-374.3" font-family="Times,serif" font-size="14.00">created_at :datetime</text>
<text text-anchor="start" x="747.438" y="-359.3" font-family="Times,serif" font-size="14.00">updated_at :datetime</text>
<text text-anchor="start" x="747.438" y="-344.3" font-family="Times,serif" font-size="14.00">position :string</text>
</g>
<!-- Utilisateur&#45;&gt;ContactClient -->
<g id="edge10" class="edge"><title>Utilisateur&#45;&gt;ContactClient</title>
<path fill="none" stroke="black" d="M761.484,-936.283C768.482,-924.015 774.666,-911.036 778.938,-898 824.562,-758.775 820.232,-585.123 812.74,-487.909"/>
</g>
<!-- Adresse -->
<g id="node11" class="node"><title>Adresse</title>
<polyline fill="none" stroke="black" points="330.438,-131 449.438,-131 "/>
<path fill="none" stroke="black" d="M449.438,-131C455.438,-131 461.438,-137 461.438,-143"/>
<polyline fill="none" stroke="black" points="461.438,-143 461.438,-285 "/>
<path fill="none" stroke="black" d="M461.438,-285C461.438,-291 455.438,-297 449.438,-297"/>
<polyline fill="none" stroke="black" points="449.438,-297 330.438,-297 "/>
<path fill="none" stroke="black" d="M330.438,-297C324.438,-297 318.438,-291 318.438,-285"/>
<polyline fill="none" stroke="black" points="318.438,-285 318.438,-143 "/>
<path fill="none" stroke="black" d="M318.438,-143C318.438,-137 324.438,-131 330.438,-131"/>
<text text-anchor="middle" x="389.938" y="-281.8" font-family="Times,serif" font-size="14.00">Adresse</text>
<polyline fill="none" stroke="black" points="318.438,-274 461.438,-274 "/>
<text text-anchor="start" x="326.438" y="-258.8" font-family="Times,serif" font-size="14.00">destinataire :string</text>
<text text-anchor="start" x="326.438" y="-243.8" font-family="Times,serif" font-size="14.00">rue :string</text>
<text text-anchor="start" x="326.438" y="-228.8" font-family="Times,serif" font-size="14.00">ville :string</text>
<text text-anchor="start" x="326.438" y="-213.8" font-family="Times,serif" font-size="14.00">complement :string</text>
<text text-anchor="start" x="326.438" y="-198.8" font-family="Times,serif" font-size="14.00">pays :string</text>
<text text-anchor="start" x="326.438" y="-183.8" font-family="Times,serif" font-size="14.00">code_postal :integer</text>
<text text-anchor="start" x="326.438" y="-168.8" font-family="Times,serif" font-size="14.00">localisable_type :string</text>
<text text-anchor="start" x="326.438" y="-153.8" font-family="Times,serif" font-size="14.00">created_at :datetime</text>
<text text-anchor="start" x="326.438" y="-138.8" font-family="Times,serif" font-size="14.00">updated_at :datetime</text>
</g>
<!-- Utilisateur&#45;&gt;Adresse -->
<g id="edge4" class="edge"><title>Utilisateur&#45;&gt;Adresse</title>
<path fill="none" stroke="#489e60" d="M648.68,-929.165C642.388,-918.852 636.318,-908.303 630.938,-898 540.025,-723.881 529.042,-674.013 465.938,-488 445.488,-427.718 426.296,-358.635 412.314,-305.045"/>
<ellipse fill="none" stroke="#489e60" cx="650.962" cy="-932.859" rx="4.00002" ry="4.00002"/>
<ellipse fill="#489e60" stroke="#489e60" cx="411.295" cy="-301.125" rx="4.00001" ry="4.00001"/>
</g>
<!-- Commercial -->
<g id="node13" class="node"><title>Commercial</title>
<polyline fill="none" stroke="black" points="651.438,-746.5 758.438,-746.5 "/>
<path fill="none" stroke="black" d="M758.438,-746.5C764.438,-746.5 770.438,-752.5 770.438,-758.5"/>
<polyline fill="none" stroke="black" points="770.438,-758.5 770.438,-885.5 "/>
<path fill="none" stroke="black" d="M770.438,-885.5C770.438,-891.5 764.438,-897.5 758.438,-897.5"/>
<polyline fill="none" stroke="black" points="758.438,-897.5 651.438,-897.5 "/>
<path fill="none" stroke="black" d="M651.438,-897.5C645.438,-897.5 639.438,-891.5 639.438,-885.5"/>
<polyline fill="none" stroke="black" points="639.438,-885.5 639.438,-758.5 "/>
<path fill="none" stroke="black" d="M639.438,-758.5C639.438,-752.5 645.438,-746.5 651.438,-746.5"/>
<text text-anchor="middle" x="704.938" y="-882.3" font-family="Times,serif" font-size="14.00">Commercial</text>
<polyline fill="none" stroke="black" points="639.438,-874.5 770.438,-874.5 "/>
<text text-anchor="start" x="647.438" y="-859.3" font-family="Times,serif" font-size="14.00">roles_mask :integer</text>
<text text-anchor="start" x="647.438" y="-844.3" font-family="Times,serif" font-size="14.00">nom :string</text>
<text text-anchor="start" x="647.438" y="-829.3" font-family="Times,serif" font-size="14.00">prenom :string</text>
<text text-anchor="start" x="647.438" y="-814.3" font-family="Times,serif" font-size="14.00">email :string</text>
<text text-anchor="start" x="647.438" y="-799.3" font-family="Times,serif" font-size="14.00">telephone :string</text>
<text text-anchor="start" x="647.438" y="-784.3" font-family="Times,serif" font-size="14.00">created_at :datetime</text>
<text text-anchor="start" x="647.438" y="-769.3" font-family="Times,serif" font-size="14.00">updated_at :datetime</text>
<text text-anchor="start" x="647.438" y="-754.3" font-family="Times,serif" font-size="14.00">position :string</text>
</g>
<!-- Utilisateur&#45;&gt;Commercial -->
<g id="edge50" class="edge"><title>Utilisateur&#45;&gt;Commercial</title>
<path fill="none" stroke="black" d="M704.938,-936.427C704.938,-923.715 704.938,-910.508 704.938,-897.79"/>
</g>
<!-- ContactClient&#45;&gt;Commande -->
<g id="edge6" class="edge"><title>ContactClient&#45;&gt;Commande</title>
<path fill="none" stroke="#e06c97" d="M788.037,-328.182C783.435,-305.634 778.609,-281.988 774.566,-262.174"/>
<ellipse fill="none" stroke="#e06c97" cx="788.902" cy="-332.422" rx="4.00001" ry="4.00001"/>
<polygon fill="#e06c97" stroke="#e06c97" points="774.527,-261.987 776.937,-251.289 773.528,-257.087 772.528,-252.188 772.528,-252.188 772.528,-252.188 773.528,-257.087 768.119,-253.088 774.527,-261.987 774.527,-261.987"/>
</g>
<!-- Promotion -->
<g id="node14" class="node"><title>Promotion</title>
<polyline fill="none" stroke="black" points="520.938,-161 660.938,-161 "/>
<path fill="none" stroke="black" d="M660.938,-161C666.938,-161 672.938,-167 672.938,-173"/>
<polyline fill="none" stroke="black" points="672.938,-173 672.938,-255 "/>
<path fill="none" stroke="black" d="M672.938,-255C672.938,-261 666.938,-267 660.938,-267"/>
<polyline fill="none" stroke="black" points="660.938,-267 520.938,-267 "/>
<path fill="none" stroke="black" d="M520.938,-267C514.938,-267 508.938,-261 508.938,-255"/>
<polyline fill="none" stroke="black" points="508.938,-255 508.938,-173 "/>
<path fill="none" stroke="black" d="M508.938,-173C508.938,-167 514.938,-161 520.938,-161"/>
<text text-anchor="middle" x="590.938" y="-251.8" font-family="Times,serif" font-size="14.00">Promotion</text>
<polyline fill="none" stroke="black" points="508.938,-244 672.938,-244 "/>
<text text-anchor="start" x="516.938" y="-228.8" font-family="Times,serif" font-size="14.00">valeur :float</text>
<text text-anchor="start" x="516.938" y="-213.8" font-family="Times,serif" font-size="14.00">unite :string</text>
<text text-anchor="start" x="516.938" y="-198.8" font-family="Times,serif" font-size="14.00">promotionable_type :string</text>
<text text-anchor="start" x="516.938" y="-183.8" font-family="Times,serif" font-size="14.00">created_at :datetime</text>
<text text-anchor="start" x="516.938" y="-168.8" font-family="Times,serif" font-size="14.00">updated_at :datetime</text>
</g>
<!-- ContactClient&#45;&gt;Promotion -->
<g id="edge8" class="edge"><title>ContactClient&#45;&gt;Promotion</title>
<path fill="none" stroke="#4cd6c7" d="M733.04,-345.15C707.872,-322.098 679.79,-296.378 655.279,-273.928"/>
<ellipse fill="none" stroke="#4cd6c7" cx="736.327" cy="-348.16" rx="4.00002" ry="4.00002"/>
<polygon fill="#4cd6c7" stroke="#4cd6c7" points="655.168,-273.827 650.833,-263.755 651.481,-270.45 647.794,-267.073 647.794,-267.073 647.794,-267.073 651.481,-270.45 644.754,-270.392 655.168,-273.827 655.168,-273.827"/>
</g>
<!-- Client -->
<g id="node9" class="node"><title>Client</title>
<polyline fill="none" stroke="black" points="597.938,-541 733.938,-541 "/>
<path fill="none" stroke="black" d="M733.938,-541C739.938,-541 745.938,-547 745.938,-553"/>
<polyline fill="none" stroke="black" points="745.938,-553 745.938,-695 "/>
<path fill="none" stroke="black" d="M745.938,-695C745.938,-701 739.938,-707 733.938,-707"/>
<polyline fill="none" stroke="black" points="733.938,-707 597.938,-707 "/>
<path fill="none" stroke="black" d="M597.938,-707C591.938,-707 585.938,-701 585.938,-695"/>
<polyline fill="none" stroke="black" points="585.938,-695 585.938,-553 "/>
<path fill="none" stroke="black" d="M585.938,-553C585.938,-547 591.938,-541 597.938,-541"/>
<text text-anchor="middle" x="665.938" y="-691.8" font-family="Times,serif" font-size="14.00">Client</text>
<polyline fill="none" stroke="black" points="585.938,-684 745.938,-684 "/>
<text text-anchor="start" x="593.938" y="-668.8" font-family="Times,serif" font-size="14.00">raison_sociale :string</text>
<text text-anchor="start" x="593.938" y="-653.8" font-family="Times,serif" font-size="14.00">categorie_juridique :string</text>
<text text-anchor="start" x="593.938" y="-638.8" font-family="Times,serif" font-size="14.00">naf_2008 :string</text>
<text text-anchor="start" x="593.938" y="-623.8" font-family="Times,serif" font-size="14.00">naf_2003 :string</text>
<text text-anchor="start" x="593.938" y="-608.8" font-family="Times,serif" font-size="14.00">siren :string</text>
<text text-anchor="start" x="593.938" y="-593.8" font-family="Times,serif" font-size="14.00">site_web :string</text>
<text text-anchor="start" x="593.938" y="-578.8" font-family="Times,serif" font-size="14.00">commentaires :text</text>
<text text-anchor="start" x="593.938" y="-563.8" font-family="Times,serif" font-size="14.00">created_at :datetime</text>
<text text-anchor="start" x="593.938" y="-548.8" font-family="Times,serif" font-size="14.00">updated_at :datetime</text>
</g>
<!-- Client&#45;&gt;Commande -->
<g id="edge16" class="edge"><title>Client&#45;&gt;Commande</title>
<path fill="none" stroke="#2c6fd3" d="M685.561,-530.804C697.882,-474.383 714.503,-400.819 730.938,-336 737.147,-311.513 744.694,-284.428 751.098,-262.103"/>
<polygon fill="#2c6fd3" stroke="#2c6fd3" points="685.518,-531.005 678.993,-539.818 684.454,-535.89 683.39,-540.776 683.39,-540.776 683.39,-540.776 684.454,-535.89 687.787,-541.733 685.518,-531.005 685.518,-531.005"/>
<polygon fill="#2c6fd3" stroke="#2c6fd3" points="751.181,-261.815 758.275,-253.453 752.566,-257.011 753.952,-252.206 753.952,-252.206 753.952,-252.206 752.566,-257.011 749.628,-250.96 751.181,-261.815 751.181,-261.815"/>
</g>
<!-- Client&#45;&gt;Ristourne -->
<g id="edge20" class="edge"><title>Client&#45;&gt;Ristourne</title>
<path fill="none" stroke="#3b0d94" d="M612.951,-533.982C600.872,-513.688 588.307,-492.579 577.119,-473.783"/>
<ellipse fill="none" stroke="#3b0d94" cx="615.027" cy="-537.469" rx="4.00002" ry="4.00002"/>
<polygon fill="#3b0d94" stroke="#3b0d94" points="577.029,-473.633 575.781,-462.738 574.472,-469.336 571.914,-465.04 571.914,-465.04 571.914,-465.04 574.472,-469.336 568.047,-467.341 577.029,-473.633 577.029,-473.633"/>
</g>
<!-- Client&#45;&gt;ContactClient -->
<g id="edge14" class="edge"><title>Client&#45;&gt;ContactClient</title>
<path fill="none" stroke="#ef1c49" d="M724.947,-533.851C733.249,-521.307 741.757,-508.454 749.98,-496.031"/>
<ellipse fill="none" stroke="#ef1c49" cx="722.484" cy="-537.571" rx="4.00002" ry="4.00002"/>
<polygon fill="#ef1c49" stroke="#ef1c49" points="750.102,-495.846 759.374,-489.991 752.862,-491.677 755.621,-487.508 755.621,-487.508 755.621,-487.508 752.862,-491.677 751.869,-485.024 750.102,-495.846 750.102,-495.846"/>
</g>
<!-- Client&#45;&gt;Adresse -->
<g id="edge12" class="edge"><title>Client&#45;&gt;Adresse</title>
<path fill="none" stroke="#51789d" d="M654.615,-532.872C644,-454.412 627.871,-350.932 614.938,-336 579.697,-295.31 547.615,-322.989 499.938,-298 489.335,-292.443 478.675,-285.887 468.384,-278.935"/>
<ellipse fill="none" stroke="#51789d" cx="655.156" cy="-536.898" rx="4.00001" ry="4.00001"/>
<ellipse fill="#51789d" stroke="#51789d" cx="464.973" cy="-276.585" rx="4.00002" ry="4.00002"/>
</g>
<!-- Client&#45;&gt;Promotion -->
<g id="edge18" class="edge"><title>Client&#45;&gt;Promotion</title>
<path fill="none" stroke="#3db98c" d="M671.78,-532.537C673.189,-470.38 669.89,-386.651 648.938,-316 644.937,-302.506 638.823,-288.884 632.042,-276.2"/>
<ellipse fill="none" stroke="#3db98c" cx="671.669" cy="-536.777" rx="4" ry="4"/>
<polygon fill="#3db98c" stroke="#3db98c" points="631.867,-275.885 630.94,-264.958 629.437,-271.515 627.007,-267.145 627.007,-267.145 627.007,-267.145 629.437,-271.515 623.075,-269.332 631.867,-275.885 631.867,-275.885"/>
</g>
<!-- Produit -->
<g id="node10" class="node"><title>Produit</title>
<polyline fill="none" stroke="black" points="79.4383,-541 222.438,-541 "/>
<path fill="none" stroke="black" d="M222.438,-541C228.438,-541 234.438,-547 234.438,-553"/>
<polyline fill="none" stroke="black" points="234.438,-553 234.438,-695 "/>
<path fill="none" stroke="black" d="M234.438,-695C234.438,-701 228.438,-707 222.438,-707"/>
<polyline fill="none" stroke="black" points="222.438,-707 79.4383,-707 "/>
<path fill="none" stroke="black" d="M79.4383,-707C73.4383,-707 67.4383,-701 67.4383,-695"/>
<polyline fill="none" stroke="black" points="67.4383,-695 67.4383,-553 "/>
<path fill="none" stroke="black" d="M67.4383,-553C67.4383,-547 73.4383,-541 79.4383,-541"/>
<text text-anchor="middle" x="150.938" y="-691.8" font-family="Times,serif" font-size="14.00">Produit</text>
<polyline fill="none" stroke="black" points="67.4383,-684 234.438,-684 "/>
<text text-anchor="start" x="75.4383" y="-668.8" font-family="Times,serif" font-size="14.00">ref :string</text>
<text text-anchor="start" x="75.4383" y="-653.8" font-family="Times,serif" font-size="14.00">nom :string</text>
<text text-anchor="start" x="75.4383" y="-638.8" font-family="Times,serif" font-size="14.00">tva :string</text>
<text text-anchor="start" x="75.4383" y="-623.8" font-family="Times,serif" font-size="14.00">puht :float</text>
<text text-anchor="start" x="75.4383" y="-608.8" font-family="Times,serif" font-size="14.00">quantite :integer</text>
<text text-anchor="start" x="75.4383" y="-593.8" font-family="Times,serif" font-size="14.00">duree_conservation :integer</text>
<text text-anchor="start" x="75.4383" y="-578.8" font-family="Times,serif" font-size="14.00">unite :string</text>
<text text-anchor="start" x="75.4383" y="-563.8" font-family="Times,serif" font-size="14.00">created_at :datetime</text>
<text text-anchor="start" x="75.4383" y="-548.8" font-family="Times,serif" font-size="14.00">updated_at :datetime</text>
</g>
<!-- Produit&#45;&gt;Stock -->
<g id="edge30" class="edge"><title>Produit&#45;&gt;Stock</title>
<path fill="none" stroke="#a1efc0" d="M241.374,-580.822C265.651,-565.478 289.654,-545.897 305.938,-522 314.626,-509.251 311.375,-503.349 312.938,-488 319.785,-420.792 340.372,-397.735 312.938,-336 302.914,-313.443 286.377,-293.314 268.283,-276.253"/>
<ellipse fill="none" stroke="#a1efc0" cx="237.932" cy="-582.941" rx="4.00002" ry="4.00002"/>
<polygon fill="#a1efc0" stroke="#a1efc0" points="267.847,-275.857 263.474,-265.801 264.147,-272.494 260.447,-269.131 260.447,-269.131 260.447,-269.131 264.147,-272.494 257.42,-272.461 267.847,-275.857 267.847,-275.857"/>
</g>
<!-- Produit&#45;&gt;LigneCommande -->
<g id="edge36" class="edge"><title>Produit&#45;&gt;LigneCommande</title>
<path fill="none" stroke="#166431" d="M61.4482,-554.622C42.5676,-535.335 25.2526,-512.772 14.9383,-488 -11.0292,-425.635 3.49035,-402.579 14.9383,-336 31.3985,-240.271 32.4278,-209.71 87.9383,-130 99.925,-112.788 116.034,-96.9895 132.148,-83.5955"/>
<ellipse fill="none" stroke="#166431" cx="64.5176" cy="-557.679" rx="4.00002" ry="4.00002"/>
<polygon fill="#166431" stroke="#166431" points="132.263,-83.503 142.869,-80.7179 136.152,-80.3604 140.041,-77.2178 140.041,-77.2178 140.041,-77.2178 136.152,-80.3604 137.212,-73.7177 132.263,-83.503 132.263,-83.503"/>
</g>
<!-- Produit&#45;&gt;Lot -->
<g id="edge22" class="edge"><title>Produit&#45;&gt;Lot</title>
<path fill="none" stroke="#468de7" d="M211.797,-533.523C213.64,-529.688 215.365,-525.839 216.938,-522 222.944,-507.347 227.36,-490.892 230.588,-475.296"/>
<ellipse fill="none" stroke="#468de7" cx="209.905" cy="-537.298" rx="4.00002" ry="4.00002"/>
<polygon fill="#468de7" stroke="#468de7" points="230.642,-475.016 236.961,-466.053 231.592,-470.107 232.543,-465.198 232.543,-465.198 232.543,-465.198 231.592,-470.107 228.125,-464.343 230.642,-475.016 230.642,-475.016"/>
<text text-anchor="middle" x="262.438" y="-510.3" font-family="Times,serif" font-size="14.00">lots_contenant</text>
</g>
<!-- Produit&#45;&gt;Lot -->
<g id="edge26" class="edge"><title>Produit&#45;&gt;Lot</title>
<path fill="none" stroke="#164652" d="M135.773,-532.69C136.85,-523.435 139.089,-514.369 142.938,-506 148.075,-494.832 154.919,-496.352 163.938,-488 169.326,-483.011 174.855,-477.757 180.35,-472.44"/>
<ellipse fill="none" stroke="#164652" cx="135.436" cy="-536.871" rx="4" ry="4"/>
<polygon fill="#164652" stroke="#164652" points="180.646,-472.152 190.948,-468.394 184.226,-468.662 187.806,-465.172 187.806,-465.172 187.806,-465.172 184.226,-468.662 184.665,-461.95 180.646,-472.152 180.646,-472.152"/>
<text text-anchor="middle" x="177.938" y="-510.3" font-family="Times,serif" font-size="14.00">lots_contenu</text>
</g>
<!-- Produit&#45;&gt;Ristourne -->
<g id="edge40" class="edge"><title>Produit&#45;&gt;Ristourne</title>
<path fill="none" stroke="#938fa7" d="M242.825,-607.8C307.537,-593.688 393.732,-567.732 457.938,-522 475.919,-509.193 491.772,-491.345 504.676,-473.795"/>
<ellipse fill="none" stroke="#938fa7" cx="238.556" cy="-608.712" rx="4.00001" ry="4.00001"/>
<polygon fill="#938fa7" stroke="#938fa7" points="504.974,-473.375 514.437,-467.835 507.872,-469.301 510.77,-465.226 510.77,-465.226 510.77,-465.226 507.872,-469.301 507.103,-462.618 504.974,-473.375 504.974,-473.375"/>
</g>
<!-- Produit&#45;&gt;Produit -->
<g id="edge24" class="edge"><title>Produit&#45;&gt;Produit</title>
<path fill="none" stroke="#d4f778" d="M244.653,-630.124C249.24,-628.594 251.938,-626.552 251.938,-624 251.938,-621.448 249.24,-619.406 244.653,-617.876"/>
<polygon fill="#d4f778" stroke="#d4f778" points="244.303,-630.2 233.575,-627.93 239.418,-631.264 234.532,-632.327 234.532,-632.327 234.532,-632.327 239.418,-631.264 235.489,-636.725 244.303,-630.2 244.303,-630.2"/>
<polygon fill="#d4f778" stroke="#d4f778" points="244.303,-617.8 235.489,-611.275 239.418,-616.736 234.532,-615.673 234.532,-615.673 234.532,-615.673 239.418,-616.736 233.575,-620.07 244.303,-617.8 244.303,-617.8"/>
<text text-anchor="middle" x="303.938" y="-620.3" font-family="Times,serif" font-size="14.00">produits_contenant</text>
</g>
<!-- Produit&#45;&gt;Produit -->
<g id="edge28" class="edge"><title>Produit&#45;&gt;Produit</title>
<path fill="none" stroke="#73c560" d="M244.796,-642.588C299.592,-645.082 355.938,-638.886 355.938,-624 355.938,-609.114 299.592,-602.918 244.796,-605.412"/>
<polygon fill="#73c560" stroke="#73c560" points="244.581,-642.576 234.846,-637.528 239.589,-642.299 234.597,-642.021 234.597,-642.021 234.597,-642.021 239.589,-642.299 234.347,-646.514 244.581,-642.576 244.581,-642.576"/>
<polygon fill="#73c560" stroke="#73c560" points="244.581,-605.424 234.347,-601.486 239.589,-605.701 234.597,-605.979 234.597,-605.979 234.597,-605.979 239.589,-605.701 234.846,-610.472 244.581,-605.424 244.581,-605.424"/>
<text text-anchor="middle" x="402.938" y="-620.3" font-family="Times,serif" font-size="14.00">produits_contenu</text>
</g>
<!-- Produit&#45;&gt;Adresse -->
<g id="edge34" class="edge"><title>Produit&#45;&gt;Adresse</title>
<path fill="none" stroke="#6752e8" d="M241.915,-586.472C271.709,-570.582 302.602,-549.254 323.938,-522 372.038,-460.56 386.984,-371.857 390.813,-305.582"/>
<ellipse fill="none" stroke="#6752e8" cx="238.324" cy="-588.342" rx="4.00002" ry="4.00002"/>
<ellipse fill="#6752e8" stroke="#6752e8" cx="391.039" cy="-301.2" rx="4" ry="4"/>
</g>
<!-- Agence -->
<g id="node12" class="node"><title>Agence</title>
<polyline fill="none" stroke="black" points="36.4383,-374 143.438,-374 "/>
<path fill="none" stroke="black" d="M143.438,-374C149.438,-374 155.438,-380 155.438,-386"/>
<polyline fill="none" stroke="black" points="155.438,-386 155.438,-438 "/>
<path fill="none" stroke="black" d="M155.438,-438C155.438,-444 149.438,-450 143.438,-450"/>
<polyline fill="none" stroke="black" points="143.438,-450 36.4383,-450 "/>
<path fill="none" stroke="black" d="M36.4383,-450C30.4383,-450 24.4383,-444 24.4383,-438"/>
<polyline fill="none" stroke="black" points="24.4383,-438 24.4383,-386 "/>
<path fill="none" stroke="black" d="M24.4383,-386C24.4383,-380 30.4383,-374 36.4383,-374"/>
<text text-anchor="middle" x="89.9383" y="-434.8" font-family="Times,serif" font-size="14.00">Agence</text>
<polyline fill="none" stroke="black" points="24.4383,-427 155.438,-427 "/>
<text text-anchor="start" x="32.4383" y="-411.8" font-family="Times,serif" font-size="14.00">nom :string</text>
<text text-anchor="start" x="32.4383" y="-396.8" font-family="Times,serif" font-size="14.00">created_at :datetime</text>
<text text-anchor="start" x="32.4383" y="-381.8" font-family="Times,serif" font-size="14.00">updated_at :datetime</text>
</g>
<!-- Produit&#45;&gt;Agence -->
<g id="edge32" class="edge"><title>Produit&#45;&gt;Agence</title>
<path fill="none" stroke="#9e3cab" d="M124.29,-531.261C117.111,-506.546 109.643,-480.836 103.511,-459.725"/>
<polygon fill="#9e3cab" stroke="#9e3cab" points="124.302,-531.303 122.771,-542.162 125.697,-536.105 127.092,-540.906 127.092,-540.906 127.092,-540.906 125.697,-536.105 131.413,-539.651 124.302,-531.303 124.302,-531.303"/>
<polygon fill="#9e3cab" stroke="#9e3cab" points="103.494,-459.666 105.025,-448.807 102.099,-454.864 100.704,-450.063 100.704,-450.063 100.704,-450.063 102.099,-454.864 96.3827,-451.318 103.494,-459.666 103.494,-459.666"/>
</g>
<!-- Produit&#45;&gt;Promotion -->
<g id="edge38" class="edge"><title>Produit&#45;&gt;Promotion</title>
<path fill="none" stroke="#8a7dd7" d="M242.21,-581.08C275.299,-564.389 312.295,-543.929 343.938,-522 425.196,-465.688 405.852,-414.508 465.938,-336 482.541,-314.307 503.015,-292.839 522.553,-274.144"/>
<ellipse fill="none" stroke="#8a7dd7" cx="238.351" cy="-583.011" rx="4.00002" ry="4.00002"/>
<polygon fill="#8a7dd7" stroke="#8a7dd7" points="522.717,-273.989 533.076,-270.391 526.351,-270.555 529.985,-267.121 529.985,-267.121 529.985,-267.121 526.351,-270.555 526.894,-263.85 522.717,-273.989 522.717,-273.989"/>
</g>
<!-- Agence&#45;&gt;Stock -->
<g id="edge42" class="edge"><title>Agence&#45;&gt;Stock</title>
<path fill="none" stroke="#62c07c" d="M110.269,-366.226C121.356,-341.81 135.316,-311.066 147.75,-283.685"/>
<ellipse fill="none" stroke="#62c07c" cx="108.542" cy="-370.03" rx="4.00002" ry="4.00002"/>
<polygon fill="#62c07c" stroke="#62c07c" points="147.767,-283.648 155.999,-276.403 149.834,-279.095 151.901,-274.542 151.901,-274.542 151.901,-274.542 149.834,-279.095 147.804,-272.682 147.767,-283.648 147.767,-283.648"/>
</g>
<!-- Agence&#45;&gt;Adresse -->
<g id="edge44" class="edge"><title>Agence&#45;&gt;Adresse</title>
<path fill="none" stroke="#146782" d="M125.99,-367.931C137.238,-356.406 150.297,-344.737 163.938,-336 205.729,-309.232 224.786,-320.663 268.938,-298 283.156,-290.702 297.671,-281.997 311.485,-273.012"/>
<ellipse fill="none" stroke="#146782" cx="123.038" cy="-371.031" rx="4.00002" ry="4.00002"/>
<ellipse fill="#146782" stroke="#146782" cx="314.866" cy="-270.784" rx="4.00002" ry="4.00002"/>
</g>
<!-- Commercial&#45;&gt;ContactClient -->
<g id="edge46" class="edge"><title>Commercial&#45;&gt;ContactClient</title>
<path fill="none" stroke="#f5afe7" d="M744.084,-738.883C748.135,-728.625 751.88,-718.166 754.938,-708 775.805,-638.641 788.774,-557.323 796.258,-497.648"/>
<ellipse fill="none" stroke="#f5afe7" cx="742.583" cy="-742.601" rx="4.00002" ry="4.00002"/>
<polygon fill="#f5afe7" stroke="#f5afe7" points="796.283,-497.441 801.969,-488.064 796.893,-492.478 797.502,-487.516 797.502,-487.516 797.502,-487.516 796.893,-492.478 793.036,-486.967 796.283,-497.441 796.283,-497.441"/>
</g>
<!-- Commercial&#45;&gt;Client -->
<g id="edge48" class="edge"><title>Commercial&#45;&gt;Client</title>
<path fill="none" stroke="#7bfd7c" d="M688.099,-736.372C686.84,-730.044 685.566,-723.64 684.298,-717.269"/>
<polygon fill="#7bfd7c" stroke="#7bfd7c" points="688.131,-736.534 685.669,-747.22 689.107,-741.438 690.083,-746.342 690.083,-746.342 690.083,-746.342 689.107,-741.438 694.496,-745.463 688.131,-736.534 688.131,-736.534"/>
<polygon fill="#7bfd7c" stroke="#7bfd7c" points="684.266,-717.106 686.727,-706.42 683.29,-712.202 682.314,-707.299 682.314,-707.299 682.314,-707.299 683.29,-712.202 677.901,-708.177 684.266,-717.106 684.266,-717.106"/>
</g>
</g>
</svg>
